<?xml version="1.0" encoding="UTF-8"?>
<svg width="750" height="1334" viewBox="0 0 750 1334" xmlns="http://www.w3.org/2000/svg" xmlns:xlink="http://www.w3.org/1999/xlink">
  <defs>
    <!-- 渐变定义 -->
    <linearGradient id="bg-gradient" x1="0%" y1="0%" x2="100%" y2="100%">
      <stop offset="0%" stop-color="#f8d7ff"/>
      <stop offset="100%" stop-color="#c2e9fb"/>
    </linearGradient>
    
    <linearGradient id="card-gradient" x1="0%" y1="0%" x2="0%" y2="100%">
      <stop offset="0%" stop-color="#ffffff" stop-opacity="0.9"/>
      <stop offset="100%" stop-color="#f9f4ff" stop-opacity="0.9"/>
    </linearGradient>
    
    <linearGradient id="icon-gradient" x1="0%" y1="0%" x2="100%" y2="100%">
      <stop offset="0%" stop-color="#9370db"/>
      <stop offset="100%" stop-color="#6a5acd"/>
    </linearGradient>
    
    <!-- 阴影滤镜 -->
    <filter id="card-shadow" x="-20%" y="-20%" width="140%" height="140%">
      <feGaussianBlur in="SourceAlpha" stdDeviation="8"/>
      <feOffset dx="0" dy="6"/>
      <feComposite in2="SourceAlpha" operator="out"/>
      <feColorMatrix type="matrix" values="0 0 0 0 0  0 0 0 0 0  0 0 0 0 0  0 0 0 0.1 0"/>
      <feBlend in="SourceGraphic" mode="normal"/>
    </filter>
    
    <!-- 图标定义 -->
    <symbol id="scale-icon" viewBox="0 0 24 24">
      <path d="M17 3H7c-1.1 0-2 .9-2 2v14c0 1.1.9 2 2 2h10c1.1 0 2-.9 2-2V5c0-1.1-.9-2-2-2zm0 16H7V5h10v14zm-1-8h-8V7h8v4z"/>
    </symbol>
    
    <symbol id="feather-icon" viewBox="0 0 24 24">
      <path d="M12 3c-.55 0-1 .45-1 1v8H6.21c-.45 0-.67.54-.35.85l2.79 2.79c.2.2.51.2.71 0l2.79-2.79c.31-.31.09-.85-.35-.85H13V4c0-.55-.45-1-1-1z"/>
    </symbol>
    
    <symbol id="magic-icon" viewBox="0 0 24 24">
      <path d="M7.5 11.5L4 16l3.5 4.5 3.5-4.5-3.5-4.5zM20 7l-4-4-3 3 4 4 3-3zm-8 2l-4-4-3 3 4 4 3-3zm-1 7l-3.5-4.5L4 16l3.5 4.5L11 16z"/>
    </symbol>
    
    <symbol id="edit-icon" viewBox="0 0 24 24">
      <path d="M3 17.25V21h3.75L17.81 9.94l-3.75-3.75L3 17.25zM20.71 7.04c.39-.39.39-1.02 0-1.41l-2.34-2.34c-.39-.39-1.02-.39-1.41 0l-1.83 1.83 3.75 3.75 1.83-1.83z"/>
    </symbol>
    
    <!-- 波浪形状 -->
    <path id="wave" d="M0,50 C150,150 250,0 350,50 C450,100 550,0 750,50 L750,150 L0,150 Z" fill="#ffffff" opacity="0.5"/>
  </defs>
  
  <!-- 背景 -->
  <rect width="100%" height="100%" fill="url(#bg-gradient)"/>
  
  <!-- 装饰圆形 -->
  <circle cx="650" cy="100" r="120" fill="#9370db" opacity="0.08"/>
  <circle cx="100" cy="1100" r="80" fill="#6a5acd" opacity="0.08"/>
  
  <!-- 主卡片 -->
  <g filter="url(#card-shadow)" transform="translate(40, 40)">
    <rect x="0" y="0" width="670" height="1254" rx="30" fill="url(#card-gradient)"/>
    
    <!-- 标题区 -->
    <text x="335" y="100" text-anchor="middle" font-family="Arial, sans-serif" font-size="46" font-weight="700" fill="#6a0dad">
      SVG图片的场景应用
    </text>
    <text x="335" y="150" text-anchor="middle" font-family="Arial, sans-serif" font-size="28" font-weight="600" fill="#9370db">
      矢量图形的无限可能性
    </text>
    
    <!-- 简介区 -->
    <rect x="50" y="200" width="570" height="100" rx="20" fill="white" opacity="0.9"/>
    <text x="335" y="260" text-anchor="middle" font-family="Arial, sans-serif" font-size="26" fill="#4b0082">
      SVG（可缩放矢量图形）是一种基于XML的矢量图像格式
    </text>
    
    <!-- 核心特点区 -->
    <g transform="translate(50, 330)">
      <!-- 特点1 -->
      <g transform="translate(0, 0)">
        <rect x="0" y="0" width="260" height="180" rx="20" fill="white" opacity="0.9"/>
        <circle cx="130" cy="60" r="40" fill="url(#icon-gradient)"/>
        <use xlink:href="#scale-icon" x="110" y="40" width="40" height="40" fill="white"/>
        <text x="130" y="140" text-anchor="middle" font-family="Arial, sans-serif" font-size="24" fill="#4b0082" font-weight="600">无限缩放不失真</text>
        <text x="130" y="170" text-anchor="middle" font-family="Arial, sans-serif" font-size="20" fill="#555">矢量特性保持清晰锐利</text>
      </g>
      
      <!-- 特点2 -->
      <g transform="translate(290, 0)">
        <rect x="0" y="0" width="260" height="180" rx="20" fill="white" opacity="0.9"/>
        <circle cx="130" cy="60" r="40" fill="url(#icon-gradient)"/>
        <use xlink:href="#feather-icon" x="110" y="40" width="40" height="40" fill="white"/>
        <text x="130" y="140" text-anchor="middle" font-family="Arial, sans-serif" font-size="24" fill="#4b0082" font-weight="600">文件体积小巧</text>
        <text x="130" y="170" text-anchor="middle" font-family="Arial, sans-serif" font-size="20" fill="#555">显著减小，提升加载速度</text>
      </g>
      
      <!-- 特点3 -->
      <g transform="translate(0, 220)">
        <rect x="0" y="0" width="260" height="180" rx="20" fill="white" opacity="0.9"/>
        <circle cx="130" cy="60" r="40" fill="url(#icon-gradient)"/>
        <use xlink:href="#magic-icon" x="110" y="40" width="40" height="40" fill="white"/>
        <text x="130" y="140" text-anchor="middle" font-family="Arial, sans-serif" font-size="24" fill="#4b0082" font-weight="600">支持动画交互</text>
        <text x="130" y="170" text-anchor="middle" font-family="Arial, sans-serif" font-size="20" fill="#555">实现丰富的动画效果</text>
      </g>
      
      <!-- 特点4 -->
      <g transform="translate(290, 220)">
        <rect x="0" y="0" width="260" height="180" rx="20" fill="white" opacity="0.9"/>
        <circle cx="130" cy="60" r="40" fill="url(#icon-gradient)"/>
        <use xlink:href="#edit-icon" x="110" y="40" width="40" height="40" fill="white"/>
        <text x="130" y="140" text-anchor="middle" font-family="Arial, sans-serif" font-size="24" fill="#4b0082" font-weight="600">易于编辑修改</text>
        <text x="130" y="170" text-anchor="middle" font-family="Arial, sans-serif" font-size="20" fill="#555">使用代码编辑器进行修改</text>
      </g>
    </g>
    
    <!-- 实用价值区 -->
    <rect x="50" y="780" width="570" height="180" rx="20" fill="white" opacity="0.9"/>
    <text x="335" y="830" text-anchor="middle" font-family="Arial, sans-serif" font-size="30" fill="#6a0dad" font-weight="700">
      为什么SVG如此重要？
    </text>
    <text x="335" y="900" text-anchor="middle" font-family="Arial, sans-serif" font-size="24" fill="#4b0082">
      <tspan x="335" dy="0">在响应式设计、高分辨率屏幕普及的今天，</tspan>
      <tspan x="335" dy="30">SVG因其可缩放性和小文件体积，</tspan>
      <tspan x="335" dy="30">成为图标、数据可视化和插图的理想选择</tspan>
    </text>
    
    <!-- 底部信息区 -->
    <rect x="50" y="1000" width="570" height="80" rx="20" fill="#6a0dad" opacity="0.9"/>
    <text x="335" y="1045" text-anchor="middle" font-family="Arial, sans-serif" font-size="22" fill="white" font-weight="600">
      开源项目 | github.com/svg-projects | 获取更多资源
    </text>
    
    <!-- 装饰波浪 -->
    <use xlink:href="#wave" x="0" y="1100" width="670" height="150"/>
    
    <!-- 浮动装饰元素 -->
    <circle cx="600" cy="300" r="8" fill="#9370db" opacity="0.3"/>
    <circle cx="100" cy="400" r="12" fill="#6a5acd" opacity="0.3"/>
    <circle cx="200" cy="900" r="10" fill="#9370db" opacity="0.3"/>
    <circle cx="500" cy="700" r="6" fill="#6a5acd" opacity="0.3"/>
  </g>
</svg>